<svg id="Calque_1" data-name="Calque 1" xmlns="http://www.w3.org/2000/svg" viewBox="0 0 202 202"><defs><style>.cls-1,.cls-55{fill:#fff;}.cls-2{fill:#f9f7fe;}.cls-3{fill:#fefefe;}.cls-4{fill:#392b28;}.cls-5{fill:#212b57;}.cls-6{fill:#ebebf4;}.cls-7{fill:#dfdfe8;}.cls-8{fill:#e9c1ac;}.cls-9{fill:#c6c6d2;}.cls-10{fill:#1a1616;}.cls-11{fill:#282424;}.cls-12{fill:#7c8eb7;}.cls-13{fill:#f8f6fd;}.cls-14{fill:#3d4a6f;}.cls-15{fill:#d9a793;}.cls-16{fill:#526384;}.cls-17{fill:#d18b70;}.cls-18{fill:#d08b6f;}.cls-19{fill:#918b96;}.cls-20{fill:#020d3b;}.cls-21{fill:#151f4c;}.cls-22{fill:#c5c6d2;}.cls-23{fill:#0f1946;}.cls-24{fill:#3c3c42;}.cls-25{fill:#607592;}.cls-26{fill:#264067;}.cls-27{fill:#4d5d80;}.cls-28{fill:#607692;}.cls-29{fill:#222c57;}.cls-30{fill:#1c1818;}.cls-31{fill:#d08c70;}.cls-32{fill:#cf9177;}.cls-33{fill:#daa086;}.cls-34{fill:#efddd1;}.cls-35{fill:#eedcd1;}.cls-36{fill:#171212;}.cls-37{fill:#181414;}.cls-38{fill:#f0e3da;}.cls-39{fill:#181312;}.cls-40{fill:#c49682;}.cls-41{fill:#1d1d1b;}.cls-42{fill:#d28e73;}.cls-43{fill:#e7d5ca;}.cls-44{fill:#e8c0ab;}.cls-45{fill:#1d1817;}.cls-46{fill:#dca991;}.cls-47{fill:#948d96;}.cls-48{fill:#e7bfaa;}.cls-49{fill:#786b6b;}.cls-50{fill:#958d96;}.cls-51{fill:#c99f90;}.cls-52{fill:#504a4d;}.cls-53{fill:#ac9b9d;}.cls-54{fill:#cde0e2;}.cls-55{font-size:7.18px;font-family:Bauhaus93, "Bauhaus 93";}.cls-56{font-size:13.33px;stroke:#1d1d1b;stroke-miterlimit:10;font-family:BradleyHandITC, Bradley Hand ITC;}.cls-57{font-size:10px;fill:#e30613;font-family:AgencyFB-Reg, Agency FB;}</style></defs><path class="cls-1" d="M202,101q0,3.27-.22,6.5a100.35,100.35,0,0,1-8.41,34.43l0,0a101.1,101.1,0,1,1,8.25-50C201.87,94.93,202,98,202,101Z"/><path class="cls-2" d="M146.94,31.12"/><path class="cls-2" d="M201.79,107.58s-5.88,30.6-10.73,38.16a98.22,98.22,0,0,1-10.62,13.53,122.29,122.29,0,0,1-38.83,27.81,100.79,100.79,0,0,1-27.22,8.35,55.53,55.53,0,0,1-5.89.42,6.28,6.28,0,0,0-1.3,0,1.08,1.08,0,0,0-.28.11H97a62.79,62.79,0,0,1-8.64-1,51.08,51.08,0,0,1-22.38-11.58c-8.41-7.36-14.5-16.48-19.86-26.14-3-5.42-5.71-11-8.19-16.67-.27-.6-.88-1.32.2-1.8a11.57,11.57,0,0,1,2.69-.14H168.64c3,0,2.77.2,2.78-2.79,0-2.77,0-2.74-2.81-2.79a21.69,21.69,0,0,1-4.83-.17c-.84-.54-.4-1.29-.23-1.94,1.22-5.16,2.51-10.29,3.7-15.45,1.94-8.4,4.16-16.73,5.7-25.21a30,30,0,0,0,.12-10,14,14,0,0,0-1.31-4.09c-1.44-3-3.58-4.93-7.16-4.58-4.64.1-9.28,0-13.92,0-1.82-.13-3.64.2-5.46-.17-.33-.14-2.21-.58-2.06-.91,1.52-1.88-7.73.83-6.24-1.09.87-1.13-4.29-3.06-3.62-4.34,1.06-2.55.27-2,.56-4.76.35-3.2,4.88-1.67,4.52-4.91-.3-2.57,5.32-8.18,3-9.17-1.82-.8,5.26-8.38,3.29-8.64a9.3,9.3,0,0,1-1.06-.13c-.59-.16-1.51,0-1.65-.66-.16-.81.73-1.15,1.34-1.49l-1.83-.19c0,.69-.14-.45-.95-.41s-.94-1-1.29-1.55c-1.88-3.23-7.4,5.27-10.18,2.7-3.27-3-3.78,1.31-8.25,2.56s-5,.51-9.24,2.41c-3.31,4.3-2.68-1.29-5.48-.57-3.6.91-4.3-1.43-4.9,2.42-.48,1.3-4.62-2.24-5-.93s7.57,4.65,8.11,5.89c1.25,3.5-2.71,5.63-.83,8.83.33.56-5.69.17-5.85.91A2.49,2.49,0,0,0,98.09,61a4,4,0,0,1,1.14,1.76c.5,1.67,1.72,2.87,2.76,4.19a7.74,7.74,0,0,1-.14,4.11c-.81,3.14.89,5.13,2.93,7a18.82,18.82,0,0,0,4.58,3,2.13,2.13,0,0,1,1.22,1,54.63,54.63,0,0,1-2,8.83,16.55,16.55,0,0,1-3.12,2.26c-1.43,1.05-2.88,2.09-4.26,3.2-.42.33-.87.89-1.5.29a4.78,4.78,0,0,1-.26-2.24c0-7.85,0-15.69,0-23.53,0-3.12-1-4.07-4.11-4.07a22.11,22.11,0,0,0-2.82,0q-37.16,0-74.31,0a5.2,5.2,0,0,1-1.47-.13c-.9-.33-.76-1.13-.75-1.81A41.1,41.1,0,0,1,19.84,47.5C23.28,40.24,28.62,34.63,35,30c8-5.83,16.82-9.94,26-13.35A184.19,184.19,0,0,1,94.81,7.93a123.17,123.17,0,0,1,23.33-1.54C131.82,6.72,143.58,12,154,20.6c8.76,7.26,15.74,16.09,22.22,25.34a190.08,190.08,0,0,1,16.66,28.75c4.15,8.87,7.36,18,8.56,27.83C201.63,104.21,201.52,105.9,201.79,107.58Z"/><path class="cls-1" d="M201.59,92v15.51c-.62-1.11-.34-2.36-.48-3.53a90,90,0,0,0-6.24-23.37,185.69,185.69,0,0,0-19.81-35.48A158.06,158.06,0,0,0,162.42,29.3,76,76,0,0,0,144,14.05,53.64,53.64,0,0,0,124.2,7.16,76.19,76.19,0,0,0,114,6.36c-.71,0-1.41,0-2.12,0l-.76,0c-4.89.3-9.77.76-14.63,1.5A193.61,193.61,0,0,0,75.4,12.29a149.33,149.33,0,0,0-22.69,7.89A99.9,99.9,0,0,0,37,28.7c-5.64,3.89-10.7,8.39-14.45,14.19a37.44,37.44,0,0,0-5.92,15.83,48.71,48.71,0,0,0-.51,7.44v0c-.11.13.08,0-.06.11-2.47,1.55-2.5,4-2.49,6.52.05,13.33,0,26.67,0,40,0,.59,0,1.17,0,1.76a3.7,3.7,0,0,0,2.61,3.81,4.09,4.09,0,0,0,1.83.27c3.61,0,7.22-.07,10.83,0a1.41,1.41,0,0,1,.44.14,2.11,2.11,0,0,1,.84,1.17c.87,2.39,1.83,4.74,2.69,7.13.18.5.41,1-.09,1.48-.79.39-1.68.1-2.48.43a47.8,47.8,0,0,1-5.08.11c-1.51,0-1.57.1-1.65,1.58,0,.65.09,1.35-.43,1.9a3.88,3.88,0,0,1-2.1.31H8.67c-1.67,0-1.75.09-1.77,1.73,0,.68,0,1.35,0,2,0,1.7.12,1.82,1.87,1.82H35.14a3.1,3.1,0,0,1,2.31.44l.09.22c.84,1.93,1.62,3.9,2.53,5.8,4.68,9.78,9.74,19.36,16.44,27.95A62.66,62.66,0,0,0,74,188.85a47.56,47.56,0,0,0,17.29,6.21c1.83.28,3.67.54,5.5.81H66.27A101.32,101.32,0,0,1,6.16,135.82q0-34.81,0-69.64A101.28,101.28,0,0,1,66.32,6.11h69.36A101.05,101.05,0,0,1,201.59,92Z"/><path class="cls-3" d="M180.44,159.27a122.29,122.29,0,0,1-38.83,27.81,100.79,100.79,0,0,1-27.22,8.35,55.53,55.53,0,0,1-5.89.42,6.28,6.28,0,0,0-1.3,0h-.49c1.2-.62,2.54-.35,3.8-.47a98.1,98.1,0,0,0,29.43-8.2,123.32,123.32,0,0,0,26-15.47c3-2.3,5.77-4.79,8.54-7.33C180.72,158.69,184.35,155,180.44,159.27Z"/><path class="cls-4" d="M142.75,35.63c-3-.19,4.62-1.82,1.8-.68A8.62,8.62,0,0,0,142.61,36a.51.51,0,0,0,.24.92,34.16,34.16,0,0,1,4.63.7c1,.28-1.53.41-.54.83,1.68.7,1.9.82,1.91.88.07.42-.21.81-.62.72-1.64-.39,2.6-1.37,1.63,2.84a.5.5,0,0,1-.15.25c-.26.24-.56,2.12-.63,4.93a.58.58,0,0,1-.23.46c-1,.65-.75,7.27-1.13,12.41a.56.56,0,0,1-.27.41c-1.18.67-.62,3.13-1,1.66a23.19,23.19,0,0,0-1.92-5.28,5.42,5.42,0,0,0-.46-.82c-.47-.59-.94-1.52-1.65-1.42s-.38,1.14-.52,1.76c-.24,1-.63,2-.88,3.09a15.61,15.61,0,0,1-1.14,3c-.39.89-.9,1.72-1.36,2.57a23.54,23.54,0,0,1-1.61,2.64c-.26.35-.51.85-1,.67a.52.52,0,0,1-.29-.31,1.87,1.87,0,0,1,.16-1.76.38.38,0,0,0,.06-.13c1.31-4.1,2.82-8.18,1.44-12.59a3,3,0,0,1,.67-3,16.55,16.55,0,0,0,3.88-8.15,14,14,0,0,0-.05-3.57,5.8,5.8,0,0,1-1.4,4.63,15.69,15.69,0,0,1-5.72,4.88.39.39,0,0,1-.14,0c-4.93,1-9.78.34-14.59-.78-2.28-.52-4.53-1.11-6.86-1.41a35.53,35.53,0,0,0-5.16,0h-.13c-4.26-.93-4.25.12-5,4.46-.18,1-.71-.48-.84-.08a.44.44,0,0,1-.68.22c-.58-.38-1.38-1.31-2-1.68a.49.49,0,0,1-.19-.63c.27-.59.76-1.39.59-1.67-2-3.28-4-.36-5.28-3.76a.5.5,0,0,1,0-.32c.31-1-1.29-.17-.33-1a21.16,21.16,0,0,1,11-5,12.44,12.44,0,0,1,6.17,1,57.73,57.73,0,0,0,12.45,3.85,42.5,42.5,0,0,0,8.66.44c-6.13.35-11.44-2.06-16.06-5.63-6.4-4.94-12.89-4.11-19.67-1.44A11.91,11.91,0,0,0,94,37.3l-.2.15c-.4.26-.23,2-.11,1.58.29-1,.57.28.81-.56S98.1,35,98.9,34.54c8.48-5.28,12.82-3.36,22.6-5.57.11,0,2.52.23,2.52.23,3.89,1.6,7.21.15,9.67,1.92,3.38,2.46,3.77-.95,5.82,2.62.42.73.06-.4.49.41a.56.56,0,0,0,.64.25c.22,0,.25.71.59,0s-.66.89.28.82"/><path class="cls-5" d="M100,96.65a74.09,74.09,0,0,1,8.12-5.87c2.93-2.49,8-4.21,11.68-1.79a1.59,1.59,0,0,1,.47,1.41,15.92,15.92,0,0,0-.72,2.71c-.08,1.45.48,2,1.91,2.14,3.56.24,6.12-1.55,8.35-4a16.22,16.22,0,0,1,1.45-1.75,18,18,0,0,1,5.22-1.5c2.39-.47,4.79-.91,7.17,0,3.86,1.43,5,5.44,4.65,9.24-.23,3-1.42,5.72-2.54,8.46-2.14,5.23-4.52,10.36-6.83,15.51a2.08,2.08,0,0,1-2.16,1.45c-.49,0-1,0-1.48,0a16.2,16.2,0,0,1-5.8-1.07,22.08,22.08,0,0,1-7-4,2,2,0,0,1-.69-2.39c1.25-3.51,2.21-7.11,3.68-10.33.13-.36-.2-.33,0-.28s0,0,0,.08a42.07,42.07,0,0,1-2.28,5.14c-.82,1.65-1.7,3.27-2.39,5a1.69,1.69,0,0,0-.15,1.42c.42.89,0,1.45-.76,1.86-3.23,1.75-6.35,3.73-9.83,5-.34.12-.42.25-.36.55a36.07,36.07,0,0,1-8.49,2.47,1.3,1.3,0,0,1-.91-.2c-.54-1.08.27-1.93.49-2.87,1.68-4.62,3.56-9.16,4.82-13.92A72.5,72.5,0,0,1,110,99.27a1.75,1.75,0,0,0,.5-1.1,1.5,1.5,0,0,1-.31.81A71.15,71.15,0,0,1,101,110.23a2.11,2.11,0,0,0-.72,1.65,15.77,15.77,0,0,1,0,2.28c-.29.38-.57.56-.87,0a1.67,1.67,0,0,1-.15-.65c-.07-5.16,0-10.33,0-15.49A1.45,1.45,0,0,1,100,96.65Z"/><path class="cls-6" d="M37.45,139c-9.84,0-19.67,0-29.51,0-1.17,0-1.62-.28-1.51-1.5a20.45,20.45,0,0,0,0-3.5c-.1-1.17.26-1.54,1.48-1.53,5.12.06,10.24,0,15.36,0a2,2,0,0,1,1.52-.4q21.6,0,43.19,0l.4,0q3.68-.09,7.36,0c7.49-.1,15,0,22.49,0,.53,0,1,0,1.58,0,8.57.06,17.14-.13,25.71,0,2.34.17,4.69-.13,7,0,1.73-.06,3.46-.06,5.18,0,3.14-.07,6.29-.08,9.43,0,4.88-.11,9.76,0,14.65,0a2.07,2.07,0,0,1,1.51.44c2.42,0,4.84,0,7.27,0,.81,0,1.12.25,1.09,1.08-.05,1.43,0,2.87,0,4.31,0,.79-.22,1.18-1.07,1.1a9.55,9.55,0,0,0-1.07,0Z"/><path class="cls-7" d="M163.32,132.53H147.14c-.37-.52-.12-1.05,0-1.55,3.4-14.51,6.77-29,10.23-43.51A82,82,0,0,1,161,75.23a16.56,16.56,0,0,1,1.28-2.52,3.09,3.09,0,0,1,2.33-1.61c4.1-.53,6.48,2.51,7.79,5.91a23,23,0,0,1,.9,11.52c-1.1,8.25-3.44,16.24-5.31,24.32C166.5,119.43,164.89,126,163.32,132.53Z"/><path class="cls-8" d="M139.59,63.28l1.09-3c.5-.48,1.07-.33,1.64-.17a5.9,5.9,0,0,1,4.14,7.12A7.71,7.71,0,0,1,145,70.54l-.2.35a7.37,7.37,0,0,1-5.18,4.82,6,6,0,0,1-3.1-.38,1,1,0,0,0-1.38.41,9.53,9.53,0,0,1-.75.93c-4.21,3.73-8.82,6.72-14.48,7.73-.31.06-.59.22-.91.26-2.48-.54-5-.75-7.41-1.79a2.72,2.72,0,0,1-1.39-1,26.12,26.12,0,0,1-6.59-4.36,6.94,6.94,0,0,1-2.23-7.39,13.92,13.92,0,0,0,.23-3.34c1-.22,1.74.55,2.62.8a5.29,5.29,0,0,0,6.56-2.48A3.53,3.53,0,0,1,115,62.93a1.71,1.71,0,0,1,1.39,1,8.78,8.78,0,0,0,5.7,4.53c4,.82,7.34-.1,9.82-3.48a7.58,7.58,0,0,0,1.16-2.69c.2-.77.49-1.49,1.48-1.43s1.27.88,1.34,1.7a25.67,25.67,0,0,1-.19,5.47c0,.4-.22.79-.1,1.2a.24.24,0,0,0,.23,0c1.14-1,1.65-2.36,2.48-3.53"/><path class="cls-8" d="M140.42,66.06c-.28-.93.16-1.2,1-1.26"/><path class="cls-8" d="M139.89,65.12"/><path class="cls-9" d="M164.64,71.1c-2.28,1.13-3,3.37-3.73,5.5-2.49,7-3.92,14.3-5.67,21.5-1.29,5.34-2.52,10.7-3.78,16l-4.32,18.39-9.47,0a1.31,1.31,0,0,1-.27-1.14c.28-1.82.57-3.64.91-5.44a1.45,1.45,0,0,1,1.74-1.29,2.4,2.4,0,0,0,2.58-1.66c2.9-5.83,5.82-11.65,7.74-17.9a39.39,39.39,0,0,0,2-11.22c0-3.32-1.71-5-5.07-5.12a13,13,0,0,1-3.72-.36c-2.4-.86-4.81-.41-7.22-.07A18.84,18.84,0,0,1,137.64,82c.19-.61.84-.91,1.36-1.26a69.85,69.85,0,0,0,8.94-7.33c.8-.77,1.26-1.89,2.39-2.32Z"/><path class="cls-10" d="M93.55,37.9A22.48,22.48,0,0,1,103,34c3.76-.62,7.51-.76,11,1.13,1.52.83,2.85,2,4.33,2.93,5.46,3.42,8.71,4.71,15.67,5.1a29.6,29.6,0,0,1-13.17-.76A56.8,56.8,0,0,1,112,39.29a12.92,12.92,0,0,0-10.91.26c-3.18,1.4-3.82,3.14-5.77,6.18,0,0-2.34,0-2.3,0a1.68,1.68,0,0,0,0-3c-.48-.25-.78-.57-.58-1.17A27.62,27.62,0,0,1,93.55,37.9Z"/><path class="cls-11" d="M104.07,67.88l-2.36-1.06-.09-.06a8.16,8.16,0,0,1-3-4.52,1.48,1.48,0,0,0-.82-1c-1-.55-1.12-1.72-1.28-2.78-.1-.68.33-.93.87-1.08l0,0,1.78-.79.06,0c1-1.06,2.36-1.06,3.66-1.23H103a10.55,10.55,0,0,1,6,1.84.4.4,0,0,1,.16.24c.1.44.51.62.86.85a3.11,3.11,0,0,1,.28.23,1.88,1.88,0,0,1,.56,1.28c0,.39.09.78.57.9a2.16,2.16,0,0,0,1.42,0,2,2,0,0,1,.81,0c.91.25,1.48.12,1.4-1a1.89,1.89,0,0,1,1.12-1.71,19.15,19.15,0,0,1,6.5-2.83,6.38,6.38,0,0,1,2-.27h3a7.82,7.82,0,0,1,1.37.09A34.76,34.76,0,0,1,134.21,56c.42.18.95.21,1.21.67a.53.53,0,0,1,.05.18,4.85,4.85,0,0,1-.76,2.84c-.26.44-.56.89-1.09.91-1,0-1.21.63-1.43,1.42a8.71,8.71,0,0,1-5.48,6,5.19,5.19,0,0,1-2,.27c.38.16.94-.33.92.43a7.52,7.52,0,0,1-3.74,0h-.06A8,8,0,0,1,116.17,64a1.26,1.26,0,0,0-1-.8c-.63-.17-1.3-.17-1.94-.29-2-.32-2.28-.21-3.11,1.43-1.14,2.27-3.1,3.2-5.47,3.55A.69.69,0,0,1,104.07,67.88Z"/><path class="cls-12" d="M150.33,71.12A47.4,47.4,0,0,1,139.26,81a4,4,0,0,0-1.83,2.77c-.27,1.53-.68,3-1,4.56l-5.13,1.39a2.54,2.54,0,0,1,0-1.82c.48-2.49,1.17-4.94,1.52-7.46a2.42,2.42,0,0,1,.68-1.3A36.87,36.87,0,0,0,138.31,76a3.44,3.44,0,0,1,1.2-.55c2.46-.65,3.88-2.52,5.25-4.46Z"/><path class="cls-9" d="M110.19,81.89a22.87,22.87,0,0,0,7.9,2.11,1.3,1.3,0,0,1,1,.56,5.48,5.48,0,0,1,.6,4.58c-4.23-2.06-7.93-.31-11.6,1.64Z"/><path class="cls-10" d="M145,70.54c.35-1,.75-1.91,1-2.9,1.09-3.88-1.29-7.13-5.34-7.32a20.45,20.45,0,0,0,1.09-5c0-1.13.7-.53,1.06-.26a9.16,9.16,0,0,1,2.95,4.56c.45,1.21.77,2.47,1.1,3.73.2.74-1.1-1.48-.24-1.77,1.24-.42-1.33-15.06-.3-15.88.19-.14,3.87,11.54,4.18,11.89C147,56.65,148,65.91,145,70.54Z"/><path class="cls-13" d="M32.87,128.5c-.53-2.3-1.64-4.4-2.38-6.62-.32-1-.72-1.91-1.09-2.87,2.82-.2,5.65,0,8.47-.09a.86.86,0,0,1,1,1c.06,2.61.07,5.21,0,7.81,0,.55-.26,1-.91.92A45.47,45.47,0,0,1,32.87,128.5Z"/><path class="cls-14" d="M32.87,128.5c1.61,0,3.22,0,4.83.08.64,0,.85-.2.84-.85,0-2.64,0-5.28,0-7.93,0-.6-.14-.89-.81-.87-2.78,0-5.55.06-8.33.08h0a.13.13,0,0,1-.12-.19l9.5,0a2.23,2.23,0,0,1,.43,1.76c0,2,0,3.94,0,5.9,0,1.47.13,1.58,1.63,1.6,2.33,0,4.65,0,7,0a3.89,3.89,0,0,1,1.85.24.36.36,0,0,1,.19.42H30.37C31.18,128.37,32.05,128.71,32.87,128.5Z"/><path class="cls-13" d="M29.29,118.83l.12.19-12.5,0a1,1,0,0,1-.75-.22Z"/><path class="cls-15" d="M92.68,118.76l.53.11a.65.65,0,0,1-.38.64c-1.56,1-3,2.23-4.61,3.1a2.89,2.89,0,0,1-1.84.1,15.06,15.06,0,0,1-2.12-.32c-2.58-.78-4,.93-5.41,2.53-.35.39-.15.64.18.87a.71.71,0,0,1,0,.57,27,27,0,0,0-2.75,3.28.47.47,0,0,1-.7.17,2.34,2.34,0,0,0-1.82-.64c-1.24,0-2.48,0-3.73,0a2.1,2.1,0,0,1-1.62-.42h0c-2.62-.26-5.24-.06-7.86-.12-1.2,0-2.4,0-3.59,0-.25,0-.62,0-.37-.42a1.21,1.21,0,0,1,.81-.42c5.22-1.4,9.75-4.14,14.1-7.24.93-.66,1.74-1.58,3-1.62,5.35,0,10.68,0,16,0a3.5,3.5,0,0,0,1.33-.09Z"/><path class="cls-16" d="M70.62,80.23c-1.35.18-2.74-.3-4.06.28H30.5c-.47,0-1,.17-1.4-.25a6.29,6.29,0,0,1,2-.29L69.2,80C69.68,80,70.2,79.83,70.62,80.23Z"/><path class="cls-17" d="M135.33,56.77l-1.12-.52a1.17,1.17,0,0,1-.43-.64,1.28,1.28,0,0,1,0-.39c-.13-2.85-.31-3-3-2.92a14.6,14.6,0,0,0-1.61.15,24.62,24.62,0,0,0-9.2-.78c-4.14-.76-8.26-1.07-12.35.26-1.37.11-2.74.34-4.12.34a5.55,5.55,0,0,1,.85-4.58c.7-1.06,2-.95,3.19-.9,5.4-.93,10.44,1,15.61,2a31.23,31.23,0,0,0,11,.25,3.81,3.81,0,0,1,.67,0,1.12,1.12,0,0,1,.5.75A62.93,62.93,0,0,1,136.41,56a1.34,1.34,0,0,1-.12.65.54.54,0,0,1-.33.3A.59.59,0,0,1,135.33,56.77Z"/><path class="cls-10" d="M136.1,56.8c-.19-2.65-1-5.19-1.37-7.79,1.13-1,2.43-1.8,3.55-2.84,2.25-2.1,3.61-4.51,3.27-7.7a10.5,10.5,0,0,1-.42,8.52,21,21,0,0,1-3.38,5.29,1.24,1.24,0,0,0-.33,1.19c.29,1.35.53,2.71.75,4.07a5.88,5.88,0,0,1,0,2.4q-.88,3.5-1.79,7a.28.28,0,0,1,0,.11l-.24-.05c-.58-1.26-.14-2.56-.06-3.81a25.66,25.66,0,0,0,0-5.33A1.59,1.59,0,0,1,136.1,56.8Z"/><path class="cls-10" d="M107.5,46.79c-3.26.65-3.27.65-3.76,3.94-.07.48-.34.94-.19,1.45,0,.18-.26.27-.28.45-.12.87-.37,1.49-.16,1.94a1.13,1.13,0,0,1,.07.39c0,.2.21.42,0,.54-1.25.36-2.8.67-4,1-1.84-2.8-.63-5.25,1.14-7.39A7.15,7.15,0,0,1,107.5,46.79Z"/><path class="cls-18" d="M136.1,56.8c.83,2.49.39,5,.17,7.53-.08.89-.14,1.77-.21,2.66a5.47,5.47,0,0,0-.24,2.24.45.45,0,0,1,0,.23c-.72-.21-.37-.68-.28-1.09,0-1.88,0-3.76,0-5.64,0-.57,0-1.29-.57-1.54-.81-.35-1.33.07-1.51,1a8.19,8.19,0,0,1-6.46,6.6,7.71,7.71,0,0,1-5.19-.11c1.27-.07,2.57.3,3.81-.23.9-.6,2-.77,2.9-1.34a7.66,7.66,0,0,0,3.7-4.87c.22-.93.55-1.61,1.65-1.82s1.31-1.24,1.55-2.16c.12-.46,0-1,.37-1.4Z"/><path class="cls-8" d="M79,125.81c-.32.12-.68.37-.94-.08s.1-.58.31-.79c.86-.87,1.69-1.75,2.58-2.57,1.24-1.13,2.64-.15,4-.21,1.09,0,2.16.63,3.27.14a32.9,32.9,0,0,1,8.47,2.45,15.93,15.93,0,0,0,3.57,1.06c1.88.1,3.57-.65,5.33-1.11a22.83,22.83,0,0,0,4.18-1.33c1.87-1.08,4-1.5,6-2.32,1.2-.49,2.4-1,3.62-1.42a12.53,12.53,0,0,0,3.33-2.18,27.91,27.91,0,0,0,6.7,3.8c.14,1-.55,1.48-1.11,2a24.07,24.07,0,0,1-10.89,5.85,48.21,48.21,0,0,1-12.48,1.64c-2.87,0-5.74-.09-8.6.1A6.78,6.78,0,0,1,92,129.7c-2.06-1.39-3.87-.57-5.77.78-.62.43-1,1.15-1.79,1.39-1,0-1-.56-.65-1.2a7.06,7.06,0,0,1,2-2.25c.43-.28.92-.47,1.23-.65-2.32.11-3.6,2.14-5.36,3.43-.55.33-1.22.86-1.72.15s.06-1.47.56-2.09a10.91,10.91,0,0,1,3.27-2.21c.09,0,.19-.06,0,0l-.11,0a33.89,33.89,0,0,0-3.44,2.13,3.57,3.57,0,0,1-2.1.78c-.85-.56-.35-1,.1-1.49a17.51,17.51,0,0,1,4.53-3.19,5.59,5.59,0,0,1,.87-.38,5.34,5.34,0,0,0,1-.41,2.71,2.71,0,0,0-3.17-.09C80.6,124.92,80.12,126,79,125.81Z"/><path class="cls-12" d="M143.62,88.36c1.83.07,3.67-.27,5.49.21a4.56,4.56,0,0,1,3.69,4.65,36.37,36.37,0,0,1-1.76,11c-2,7-5.37,13.57-8.66,20.1-.48.93-1.27.82-2,.7-1.41-.23-1.75.5-1.9,1.68-.23,2-.56,3.89-.84,5.83h-5.13c-.64-1.2.18-2.3.22-3.46.29-1.46.62-2.92.89-4.39.33-.89.57-1.86,1.61-2.25,2.14.37,3.09-.7,3.91-2.61,2.62-6.14,5.53-12.16,7.82-18.45a14.53,14.53,0,0,0,.68-7.81A6.58,6.58,0,0,0,143.62,88.36Z"/><path class="cls-19" d="M135.26,122.38l-1.35,2.09a6.84,6.84,0,0,1-4.42,4.55,58.77,58.77,0,0,1-12.1,2.52,111.45,111.45,0,0,1-16.23.84,13.18,13.18,0,0,0-2.66-.12c-1.38-.09-2.74.26-4.14.06a5,5,0,0,1-2.53-1.1c-2.14-1.77-3.14-1.77-5.41-.1-.61.44-1.17,1.23-2.1.56,1.3-1,2.37-2.26,4-2.82a3.89,3.89,0,0,1,3.46.29,9.19,9.19,0,0,0,5.47,1.28c3.27-.18,6.56.09,9.82-.1,5.65-.32,11.21-1.24,16.28-4a15,15,0,0,0,5.94-5.1A26.64,26.64,0,0,0,135.26,122.38Z"/><path class="cls-8" d="M133.11,80.23c-.11,2.66-1,5.16-1.45,7.76-.1.57-.26,1.13-.39,1.69a11.92,11.92,0,0,1-7.43,5.78c-1.4.34-3.12.82-4.18-.45s-.47-3.06.31-4.53a1.3,1.3,0,0,1,.76-.52c4.91-1.13,8.07-4.53,10.91-8.35C132,81.07,132.21,80.24,133.11,80.23Z"/><path class="cls-2" d="M100.18,125.81a1.84,1.84,0,0,1-1.54.1c-3.28-1.22-6.49-2.65-10-3.23-.19,0-.34-.25-.52-.38l5.07-3.43,2.55,0c2.84,0,4.15-1.45,4-4.3l.57-.58c.55-1.35,1.84-1.91,2.88-2.74.18-.15.4,0,.51.24a2.8,2.8,0,0,1-.11,1.57c-.72,3.39-1.49,6.76-2.51,10.07Z"/><path class="cls-17" d="M133.11,80.23c-1.36,1.59-2.43,3.41-3.91,4.92-2.59,2.64-5.46,4.74-9.23,5.33a2.49,2.49,0,0,0-.3-1.34l-.6-4.58a.61.61,0,0,1,.63-.55c4.74-.56,8.57-3.06,12.3-5.76.75-.54,1.43-1.19,2.15-1.79a2.46,2.46,0,0,1-.46,2.67Z"/><path class="cls-20" d="M103.47,111.21,100.29,114a3.49,3.49,0,0,1,.73-4.17c3.22-3,5.66-6.67,8.36-10.11a2.87,2.87,0,0,1,.84-.86c.07.07.1.13.08.2s0,.1-.08.1l-4.31,10C105.12,109.82,104.56,110.81,103.47,111.21Z"/><path class="cls-21" d="M122.62,117.45a2.41,2.41,0,0,1-1.35,1.56,62.89,62.89,0,0,1-11.58,4.36c-.78-.34,0-.42.11-.45a65.87,65.87,0,0,0,6.72-3.37c1.09-.63,2.21-1.19,3.3-1.81.38-.2,1-.46.67-.95-.79-1.05-.13-1.9.26-2.73,1.58-3.32,3.22-6.6,5-10.22a3.9,3.9,0,0,1-.5,2c-1,3-2,6-3,9C121.87,115.91,121.77,116.72,122.62,117.45Z"/><path class="cls-22" d="M103.47,111.21c.78-.75,1.33-1.75,2.44-2.13a12.38,12.38,0,0,1-1.06,3.72c-1.2,3.46-2.32,6.94-3.79,10.3.33-2.79,1.19-5.47,1.69-8.23A21.74,21.74,0,0,0,103.47,111.21Z"/><path class="cls-23" d="M110.22,99.12v-.3a.63.63,0,0,1,.4-.64C110.73,98.63,110.48,98.87,110.22,99.12Z"/><path class="cls-24" d="M84.32,131.68A1.9,1.9,0,0,0,86,131a8.17,8.17,0,0,1,2-1.16,2.77,2.77,0,0,1,3.69.7,5.37,5.37,0,0,0,4.61,1.68,8.93,8.93,0,0,1,2.13-.18.3.3,0,0,1,0,.48H75.73a1.94,1.94,0,0,1,.28-2.63A7.33,7.33,0,0,1,79,126.32a6.13,6.13,0,0,1,2.47-1.3,2.49,2.49,0,0,1,1-.06c.27.09.58.15.51.56a21.83,21.83,0,0,0-4.57,3.23c-.31.31-.94.56-.3,1.13a2.64,2.64,0,0,0,1.62-.43c.39-.2.75-.54,1.21-.17l-.32.42c-.35.45-.94,1-.49,1.49s1-.11,1.53-.27c.9-.65,1.75-1.37,2.63-2,.46-.35,1-.91,1.66-.38-.63.76-1.26,1.52-1.87,2.3C83.8,131.15,83.52,131.57,84.32,131.68Z"/><path class="cls-21" d="M101.11,132.23a124.19,124.19,0,0,0,25.06-2.62c3.32-.7,6-2.08,7.74-5.14a23.57,23.57,0,0,1-.81,4.56,2.7,2.7,0,0,1-1.55,1.72,16,16,0,0,1-6,1.75H99.72C100.06,131.78,100.63,132.21,101.11,132.23Z"/><path class="cls-25" d="M56.52,128.45c3.51,0,7,0,10.54.06.47,0,1-.18,1.4.23l-18.58,0c0-.08,0-.16-.05-.24V88.33a2.45,2.45,0,0,1,0-.27c3.23,0,3.23,0,3.23,3.21q0,8.64,0,17.29c0,2.92.06,5.84,0,8.76-.05,1.26.4,1.46,1.53,1.45,11.9,0,23.81,0,35.71,0,.54,0,1.08,0,1.61,0a2.47,2.47,0,0,1-1.56.19l-16.27,0a5.88,5.88,0,0,1-2.49.44q-8.09,0-16.16,0c-1.8,0-1.9.11-1.91,1.91s0,3.42,0,5.12c0,1.07.36,1.59,1.48,1.53A2,2,0,0,1,56.52,128.45Z"/><path class="cls-26" d="M16.16,118.84C14,118,13.25,117,13.25,114.73V70.34c0-2.27.69-3.23,2.9-4.14H90.27c.72,0,1.44,0,2.15.06,2.07.47,2.85,1.45,2.86,3.73,0,6.55,0,13.1,0,19.64,0,8.39,0,16.77,0,25.16A4.18,4.18,0,0,1,92.82,119a2.74,2.74,0,0,1-1.06.16H55.51c-.54,0-1.08,0-1.62,0s-1.12-.32-1.14-.94c-.1-3.21-.46-6.44.2-9.64a2.53,2.53,0,0,1,1.9-.45c2.42,0,4.84,0,7.26,0s5-.36,7.51-.22a2.47,2.47,0,0,0,1-.24,2.75,2.75,0,0,0,1.68-2.81c0-7.19,0-14.37,0-21.56a2.55,2.55,0,0,0-1.94-2.71,4.18,4.18,0,0,0-1.72-.21H31.32a8.42,8.42,0,0,0-2.12.25,24.14,24.14,0,0,1-2.55.08c-2.12.1-3,1-3,3.11,0,5.88,0,11.76,0,17.64,0,1.16,0,2.33,0,3.5.06,2,.78,2.84,2.79,3.09a38.7,38.7,0,0,0,4.44.07c1.8,0,3.59,0,5.39,0s1.85-.12,1.85-1.83c0-5.25,0-10.5,0-15.75,0-2.74.16-2.89,2.89-2.89,2.42,0,4.84,0,7.27,0A2.57,2.57,0,0,1,49.8,88a.32.32,0,0,1,0,.46,2.89,2.89,0,0,1-1.82.34c-2.29,0-4.58,0-6.87,0-1.73,0-1.84.11-1.84,1.83,0,8.63,0,17.25,0,25.87a3.94,3.94,0,0,1-.37,2.36c-.11.07-.2.19-.34.19a48.22,48.22,0,0,1-9.15-.08c-3.92-.08-7.84,0-11.75,0A5.19,5.19,0,0,1,16.16,118.84Z"/><path class="cls-25" d="M100,96.65a4.34,4.34,0,0,0-.21,1.72q0,8.09,0,16.17a3.37,3.37,0,0,1-2.94,4.6,18.5,18.5,0,0,1-3.49,0,1,1,0,0,1-.61-.37,4.41,4.41,0,0,0,2.24-4.35q-.11-22.06,0-44.14a4,4,0,0,0-2.49-4c1.17,0,2.33-.05,3.5,0,2.47,0,3.85,1.34,3.86,3.81,0,5.21,0,10.41,0,15.62,0,3.23,0,6.46,0,9.69C99.8,95.78,99.66,96.24,100,96.65Z"/><path class="cls-5" d="M68.42,132.5q-15.39,0-30.77,0c-4.8,0-9.59,0-14.38,0,.09-1.24-.55-2.88.26-3.59s2.3-.21,3.5-.22,2.23,0,3.34,0a109.88,109.88,0,0,1,12.57-.35c2.29,0,4.57,0,6.85,0,6.12.06,12.23-.11,18.35.12a1.08,1.08,0,0,1,.43.3A4.41,4.41,0,0,1,68.42,132.5Z"/><path class="cls-27" d="M49.85,88.06c-3.27,0-6.55,0-9.82,0-1.16,0-1.55.25-1.53,1.48.06,5.83,0,11.66.06,17.49,0,1.29-.4,1.58-1.6,1.55-3.27-.07-6.55,0-9.82,0-3,0-4-1-4-3.92v-21c0-2.28,1.08-3.35,3.38-3.37H29.1c11,0,22,0,33,0,1.44,0,2.87,0,4.3,0a2.35,2.35,0,0,1,2.36,2A9.75,9.75,0,0,1,69.14,85v18.71a8.06,8.06,0,0,1-.77,3.77c.88.21,1.8-.19,2.51.49-.46.44-1,.22-1.54.26-5.41.41-10.83.19-16.24.29-.59-.58-.45-1.33-.46-2,0-5.25,0-10.5,0-15.75,0-2,0-2-1.94-2.33A1.67,1.67,0,0,1,49.85,88.06Z"/><path class="cls-5" d="M49.83,128.48c-3.27,0-6.55,0-9.83,0-1,0-1.24-.3-1.22-1.23,0-2.83,0-5.66,0-8.49,0-9.66,0-19.31,0-29,0-1.16.27-1.55,1.49-1.52,3.19.09,6.38,0,9.57,0a2.18,2.18,0,0,1,.46,1.77q0,18.3,0,36.61A2.18,2.18,0,0,1,49.83,128.48Z"/><path class="cls-28" d="M70.88,108h-3.4a6,6,0,0,0,1.23-4.35c0-6.31,0-12.62,0-18.93a13,13,0,0,0-.33-2.51,2,2,0,0,0-1.83-1.71c0-.29.14-.39.39-.39a22.52,22.52,0,0,1,3.67.11,2.45,2.45,0,0,1,2.15,2.6v22.43A2.65,2.65,0,0,1,70.88,108Z"/><path class="cls-28" d="M76,129.87a7.29,7.29,0,0,0-.28,2.63H68.42l0-3.76c1.88,0,3.75,0,5.62,0C75.08,128.65,75.74,128.87,76,129.87Z"/><path class="cls-29" d="M125.58,132.5c1.92-.71,4-1,5.79-2A4.39,4.39,0,0,0,133.1,129c-.19,1.15-.37,2.3-.56,3.45Z"/><path class="cls-5" d="M101.11,132.23c-.46.12-1-.14-1.39.27H98.36V132A6.72,6.72,0,0,1,101.11,132.23Z"/><path class="cls-30" d="M133.69,79.13l.46-2.67c.16-.21.33-.42.47-.64.61-1,1.23-1.6,2.44-.64.67.53,1.62.27,2.45.28A20.68,20.68,0,0,1,133.69,79.13Z"/><path class="cls-31" d="M113.17,62.68a4.66,4.66,0,0,1,2.48.65c-.45,0-1.44,0-1.88-.08a2.08,2.08,0,0,0-2.34,1.51A5.78,5.78,0,0,1,104,67.88l.57-.08c2.72-.28,4.84-1.42,6-4.06C111.05,62.59,112.08,62.51,113.17,62.68Z"/><path class="cls-32" d="M135.54,68.37c.06.37-.12.8.28,1.09-.15.15-.29.64-.49.16A1.14,1.14,0,0,1,135.54,68.37Z"/><path class="cls-33" d="M138,69.31l.85-.37"/><path class="cls-8" d="M102.83,55.26l0-.52a1.83,1.83,0,0,1,.36-.26c2.26-.42,4.43.16,6.61.62.5.11,1,.45,1.5-.05.48-1.23.08-2-1.31-2.67-.83-.41-1.86-.25-2.57-1a17.79,17.79,0,0,1,8.43-.9,14.29,14.29,0,0,1,3.94.63c-.4.63-1.14.61-1.71.91-1.43.75-1.52,2-.21,3,.86.34,1.65-.12,2.47-.21a5.93,5.93,0,0,1,1.57-.14c.28.09,1.09.08,1.08.48a25.9,25.9,0,0,0-5.9,2.27c-1.4.81-2.63,1.65-1.7,3.65l-2.83-.37c-1.32-.13-.74-.12-.89-.52a1.67,1.67,0,0,0-.63-.83,16.42,16.42,0,0,0-1.19-1.17l0,0c-.33-.27-.58-.42-1-.78a7.67,7.67,0,0,0-4.82-1.91C103.65,55.47,103.17,55.67,102.83,55.26Z"/><path class="cls-34" d="M125.58,63.46c.24.29-.14.86.43,1a.53.53,0,0,0,.6-.2c.27-.46-1.81-1-1.94-1.34-.14-.63.53-1.46.44-2.09"/><path class="cls-34" d="M123.54,59.31c-.48-.75-1.32-1.16-1.76-1.93a9.81,9.81,0,0,1,5.36-.54c1,.18,1.91.39,2.87.55a1.27,1.27,0,0,1,1.21,1.43c.12,3.31-1.25,6-3.93,7.19-3.1,1.36-6.08,1.31-8.68-1.19-1.62-1.21-1.72-3-1.79-4.77,0-.3.27-.44.58-.4.12.06.25.12.29.25.62,2.05,2.07,2.72,4.07,2.47"/><path class="cls-35" d="M110,61.62a4.82,4.82,0,0,1-8,3.05l-.14-.15a2.43,2.43,0,0,1-.16-1.19,2.93,2.93,0,0,1,.11-.59,4.13,4.13,0,0,1,.36-.9c.75-.72,1.52-3.63,2.5-4.2,1-.16,3.67,1.53,4.46,2.12"/><path class="cls-36" d="M135.78,56.81c.33,2.1-.34,3.29-2.35,3.87-.81.24-.66.9-.79,1.38a8.3,8.3,0,0,1-7,6.34l-1.41-.07c2.62-.65,4.72-1.53,6.16-3.51A9.74,9.74,0,0,0,132,61.19c.1-.44.12-.93.76-.88,1.79.14,1.82-1.36,2.25-2.45.14-.35-.07-.81.34-1.09Z"/><path class="cls-8" d="M122.06,55.17a10.64,10.64,0,0,0-2.69.43c-.56.11-1.11.32-1.61-.15a1.19,1.19,0,0,1,.9-.73,21.68,21.68,0,0,1,13.72.06,3.38,3.38,0,0,1,1.6.95l.23.52-5.13-1c-.44-.34-1-.09-1.43-.17A14.62,14.62,0,0,0,124,55C123.34,55.15,122.69,55,122.06,55.17Z"/><path class="cls-37" d="M127.73,57a29.19,29.19,0,0,0-6,.43,7.64,7.64,0,0,0-4.49,2.26c-.84.69-.13,1.58.07,2.26.72,2.45.32,2.36,3.41,4.42-.87.19-3.22-2.09-3.54-2.56-.74-1.07-.71-2.39-1-3.58-.09-.32-.15-.48.14-.68a16.34,16.34,0,0,1,10.85-2.9s1.74.48,1.73.52S127.76,56.91,127.73,57Z"/><path class="cls-37" d="M101.78,64.58c-.66.38-.86-.27-1.12-.58-1.35-1.58-1.51-3.57-1.8-5.5a.64.64,0,0,1,.41-.76,7,7,0,0,1,3.86-.68s0,.08,0,.11a.75.75,0,0,1-.07.12.91.91,0,0,1-.47.3c-.47.13-.93.27-1.4.37-1,.2-1.46.73-1,1.77a11.75,11.75,0,0,0,.36,1.86c.3,1,.93,1.88,1.29,2.87Z"/><path class="cls-36" d="M113.17,62.68a2.49,2.49,0,0,0-2.55,1.69c-1,2.43-3.19,3.57-6,3.43,1.24-.64,2.73-.72,3.81-1.75a6.87,6.87,0,0,0,1.46-2C110.62,62.43,111.37,62.15,113.17,62.68Z"/><path class="cls-35" d="M103,57.35l.38,0,.33.21c.22.25.63.3.73.68a1,1,0,0,1-.14.79l0,.39c.11,1.38-.74,2-1.88,2.46a.79.79,0,0,1-.29-.36C102.12,60.06,101.81,58.55,103,57.35Z"/><path class="cls-38" d="M106.39,58.12"/><path class="cls-39" d="M110.08,58.42c.83.42.59.52,1,.81.35.54.83,1.12.27,1.65-.56,0-.84-.22-.76-.77A2.45,2.45,0,0,0,110.08,58.42Z"/><path class="cls-40" d="M127.73,54.91c.09.05.12.1.1.15s-.06.08-.09.08h-3.26c-.14-.14-.43,0-.52-.26"/><path class="cls-41" d="M134,57.86a.74.74,0,0,1-.76.8c-.47,0-.61-.25-.64-.65s0-.73.52-.68S133.93,57.39,134,57.86Z"/><path class="cls-42" d="M111.38,60.78A2,2,0,0,0,111,59c1.18.35,1.08,1.57,2,1.76C112.21,60.59,112.2,60.79,111.38,60.78Z"/><path class="cls-43" d="M108.16,59c6.19,4.81-5,3.26-5.9,3.37-.8.73-.12-5.06.59-5A6,6,0,0,1,108.16,59Z"/><path class="cls-41" d="M97.09,58.61c0-.32.27-.41.55-.46s.51,0,.49.4,0,.65-.5.57A.6.6,0,0,1,97.09,58.61Z"/><path class="cls-44" d="M124,54.87l.52.26-1.87.27-.55-.23C122.63,54.7,123.33,55,124,54.87Z"/><path class="cls-45" d="M108.75,57.37a8.21,8.21,0,0,1,2.36,1.86C111.31,59.65,111.12,59.77,108.75,57.37Z"/><path class="cls-46" d="M127.74,55.14a1.77,1.77,0,0,0,0-.23c.46.06,1-.19,1.35.3Z"/><path class="cls-2" d="M56.52,128.45c-3.41.16-3.41.16-3.41-3.19,0-1.74,0-3.49,0-5.24,0-.72.16-1,1-1,6.68,0,13.36.06,20,.08C68.78,123.22,63.15,126.78,56.52,128.45Z"/><path class="cls-47" d="M81.39,125.28l-2.43,1v-.51a4.27,4.27,0,0,0,1.09-.74c1.57-2,3.45-1.66,5.43-.79-.16.36-.53.38-.87.46a3.2,3.2,0,0,1-1.79.12A1.42,1.42,0,0,0,81.39,125.28Z"/><path class="cls-8" d="M134,55.73a22.52,22.52,0,0,0-9.29-1.67,24.12,24.12,0,0,0-6.93,1.39,1.85,1.85,0,0,1-.1-3.34,8,8,0,0,1,2.24-.76,19.67,19.67,0,0,1,9.44.88A6.55,6.55,0,0,1,134,55.45Z"/><path class="cls-8" d="M107.73,51.63a9.1,9.1,0,0,1,3.31.89,2,2,0,0,1,1,3,2,2,0,0,1-1.67-.1,19,19,0,0,0-5-.65,3.28,3.28,0,0,0-2.05.46s0-.28-.1-.26,0-.09,0-.13c.36-2.17-.07-.85.64-2.61C105,51.51,106.38,51.7,107.73,51.63Z"/><path class="cls-48" d="M134,55.45a15.94,15.94,0,0,0-4.62-3.22c1.11-.55,2.37-.13,3.51-.53a.62.62,0,0,1,.57.22C133.72,53.08,134.53,54.17,134,55.45Z"/><path class="cls-49" d="M86,128.49c-1.18.12-1.91,1-2.83,1.6-.47.3-.85.78-1.46.83,1.77-1.61,3.28-3.69,6.27-3.43C87.24,127.93,86.78,128.53,86,128.49Z"/><path class="cls-50" d="M81,129.28c-1-.06-1.7,1.26-2.83.6,2-.71,3.59-2.37,5.66-3,.29-.1.34,0,.28.28A14.75,14.75,0,0,0,81,129.28Z"/><path class="cls-51" d="M81.39,125.28a1.19,1.19,0,0,1,1.54-.8l1.68.26-.83.5a2.35,2.35,0,0,0-1.39,0Z"/><path class="cls-52" d="M82.39,125.22c.47-.24.93-.42,1.39,0l-.79.28C82.86,125.28,82.62,125.27,82.39,125.22Z"/><path class="cls-53" d="M84.06,127.13l-.27-.28a.71.71,0,0,1,.8-.21C84.62,127,84.28,127,84.06,127.13Z"/><path class="cls-2" d="M122.69,62.09"/><path class="cls-34" d="M125.58,63.53l.78-.3c.72.13,1,.57.72,1.23s-1,.54-1.55.33C124.64,64.42,125.43,64,125.58,63.53Z"/><path class="cls-54" d="M102.08,61.62l.09.29-.27.85c-.3-.13-.5-.47-.88-.42a2.11,2.11,0,0,1-.75-.41,5.84,5.84,0,0,1-.34-2.15,1.75,1.75,0,0,1,.13-1.47A6.6,6.6,0,0,1,102.08,61.62Z"/><path class="cls-54" d="M100.27,61.93c.35-.16.5.19.74.29.63,0,.6.6.82,1,0,.45,0,.9,0,1.35A5.68,5.68,0,0,1,100.27,61.93Z"/><path class="cls-35" d="M105.38,64.35c-.4,0-.77,0-.77-.43s.39-.64.83-.65.68,0,.68.43S105.72,64.32,105.38,64.35Z"/><path class="cls-54" d="M101.83,63.19l-.82-1c.87-.76.76.09.89.54Z"/><path class="cls-54" d="M102.08,61.62c-.9-.82-1.14-2.09-2-3.1-.05.51.1,2.53.06,2.91-1-3-.46-3.34.73-3.6l1.94-.43A40,40,0,0,0,102.08,61.62Z"/><path class="cls-2" d="M122.34,61.11s-.67,1.67-.72,1.7c-2.34.83-3.85-.13-4.32-2.75A10.52,10.52,0,0,1,121.63,58c1,0,.72,2.06.71,3.14"/><path class="cls-10" d="M101.09,74.73c-.24.53.76,3,2.33,5.36a15.7,15.7,0,0,1,2.11,6.26,15.27,15.27,0,0,1-.3,3.94v1.38a3.53,3.53,0,0,0,1.46-1.44c.47-1,2.2-7.37,1.41-8.86S101.09,74.73,101.09,74.73Z"/><path class="cls-10" d="M129.34,81.24c-2.16,5.24-2,5.32-3.37,6.86s-1.26.88-3.44,2.47-2.62,1.15-4.11,1.69a27.53,27.53,0,0,0-4.4,2.61s1.76-1.3,2-1.91.37-1.71.37-1.71,2.31-5.77,5.34-6.85S129.34,81.24,129.34,81.24Z"/><path class="cls-10" d="M134.57,68.84c-.69,5.67.23,6.75-.59,8.63a21.6,21.6,0,0,1-2.43,4.68c-1.31,1.9-4.83,3.57-4.83,3.57s2.76-2.6,3.25-4.72.12-4,1.89-7.43A37.41,37.41,0,0,1,134.57,68.84Z"/><path class="cls-4" d="M135.1,67.73c-.88,1.81-5.92,5-7.95,5.82a11,11,0,0,1-4,.9c-1.31.1-1.12-.58-3.82-1.75-2.49-1.08-4-1.83-6.79-1.61s-2.33.19-3.61,1a7.41,7.41,0,0,1-3.16,1.54c-1.93.45-1.8,1.14-3.27-.84a11.75,11.75,0,0,1-1.76-2.89,4.34,4.34,0,0,0-.36,2.19c.17,1-.19,2.55,1,4.13s3.61,4.34,4.15,5.42a8.92,8.92,0,0,1,.92,4.45A22.5,22.5,0,0,1,104,92.83c-.8,1.15-.61,3.94-.61,3.94l1.26-2.48s.14-.27.1.58.25,1.33-.25,1.88h0a3.76,3.76,0,0,0,2.39-.61,5.92,5.92,0,0,0,2-1.88c.54-.85.82.71.66,1.33s-.23.55,1-1.3,1.36-2,1.5-1.24-3,3.55.15.77,2.9-1.67,4.86-2.39,7.43-4.54,9-6.63,2.23-1.41,1.69-.39a23.14,23.14,0,0,0-1.21,3.73s1.06-1.89,2.13-3.73,3.33-3,3.47-4.26,1.07-2.59,1.92-6.14,1.69-6.45,1.69-6.45l1-1.59Z"/><path class="cls-8" d="M108.1,74.09c1.29-1.36.61-.58,1.75-1.3a5.28,5.28,0,0,1,3.58-.46,8.83,8.83,0,0,1,2.8.41,10.71,10.71,0,0,1,3.14,1.1c1.11.69,1.6,1,1.84,1.61s.92.64,0,2.66-2.41,3.4-3,3.52-1.6.79-4.73-.26S109,81,108.1,78.88a6.63,6.63,0,0,1-.61-3.83A2.82,2.82,0,0,1,108.1,74.09Z"/><path class="cls-10" d="M107.42,93.28c1-4.24-1-4.23,2-6.08s3.91-5.06,3.29-4,1.8,2.2-.08,3.13-2.88,1.06-3.81,2.77A16,16,0,0,0,107.42,93.28Z"/><path class="cls-34" d="M118.23,58.67s4.73-2.39,5-.68h0c.53.54,2.68,1.21,2.26,1.84l-1,2.41a11.77,11.77,0,0,1-2,.92l-.87.45c-.59.3-1.58,1-2.08.51l1.37,2.21C118.2,65.66,114.77,60,118.23,58.67Z"/><path class="cls-34" d="M119.49,60.43c-.11.22.41,1.25,0,1.89s-.57,1.28-1.27-.14c-.56-1.15-.17-1.19-1-2.15Z"/><text class="cls-55" transform="translate(106.48 106.53) rotate(10.9)">A</text><text class="cls-55" transform="matrix(1.11, 0.22, -0.2, 0.98, 110.37, 107)">H</text><text class="cls-55" transform="translate(115.44 107.55) rotate(10.75)">M</text><text class="cls-55" transform="matrix(0.98, 0.21, -0.21, 0.98, 120.92, 108.28)">E</text><text class="cls-55" transform="matrix(0.99, 0.17, -0.17, 0.99, 124.47, 108.87)">D</text><text class="cls-56" transform="translate(82.46 159.12)">Ahmed<tspan x="-9.48" y="16">Messaoudi</tspan></text><text class="cls-57" transform="translate(37.31 29.47)">recherche alternance</text><text class="cls-57" transform="translate(55.63 42.14)">URGENT</text></svg>